<?xml version="1.0" encoding="UTF-8"?><svg id="c" xmlns="http://www.w3.org/2000/svg" xmlns:xlink="http://www.w3.org/1999/xlink" viewBox="0 0 182 195"><defs><filter id="d" x="-15.028" y="-1.028" width="212" height="212" filterUnits="userSpaceOnUse"><feOffset dx="0" dy="0"/><feGaussianBlur result="e" stdDeviation="6.945"/><feFlood flood-color="#77dfed" flood-opacity=".3"/><feComposite in2="e" operator="in"/><feComposite in="SourceGraphic"/></filter><linearGradient id="f" x1="6.526" y1="104.808" x2="175.528" y2="104.808" gradientUnits="userSpaceOnUse"><stop offset="0" stop-color="#07b7f4"/><stop offset=".272" stop-color="#5ce1fb"/><stop offset=".693" stop-color="#a1aef8"/><stop offset="1" stop-color="#619af5"/></linearGradient><linearGradient id="g" x1="44.314" y1="116.438" x2="113.147" y2="56.855" gradientUnits="userSpaceOnUse"><stop offset="0" stop-color="#e3d4f8"/><stop offset=".028" stop-color="#e6d9f8"/><stop offset=".139" stop-color="#f1eafb"/><stop offset=".278" stop-color="#f9f6fd"/><stop offset=".471" stop-color="#fdfdfe"/><stop offset="1" stop-color="#fff"/></linearGradient><linearGradient id="h" x1="83.548" y1="147.855" x2="113.482" y2="100.316" gradientUnits="userSpaceOnUse"><stop offset="0" stop-color="#068cbe"/><stop offset=".16" stop-color="#089bca"/><stop offset=".471" stop-color="#0bb3dd"/><stop offset=".759" stop-color="#0dc1e8"/><stop offset="1" stop-color="#0ec7ed"/></linearGradient><filter id="i" x="124.972" y="7.972" width="61" height="61" filterUnits="userSpaceOnUse"><feOffset dx="0" dy="0"/><feGaussianBlur result="j" stdDeviation="6.945"/><feFlood flood-color="#77dfed" flood-opacity=".3"/><feComposite in2="j" operator="in"/><feComposite in="SourceGraphic"/></filter><linearGradient id="k" x1="131.015" y1="54.854" x2="143.826" y2="54.854" gradientTransform="translate(18.441 121.156) rotate(-45)" gradientUnits="userSpaceOnUse"><stop offset="0" stop-color="#ddf"/><stop offset=".488" stop-color="#a1aef8"/><stop offset="1" stop-color="#bdb0f8"/></linearGradient><filter id="l" x="64.972" y="-9.028" width="54" height="50" filterUnits="userSpaceOnUse"><feOffset dx="0" dy="0"/><feGaussianBlur result="m" stdDeviation="6.945"/><feFlood flood-color="#77dfed" flood-opacity=".3"/><feComposite in2="m" operator="in"/><feComposite in="SourceGraphic"/></filter><filter id="n" x="50.972" y="-16.028" width="82" height="53" filterUnits="userSpaceOnUse"><feOffset dx="0" dy="0"/><feGaussianBlur result="o" stdDeviation="6.945"/><feFlood flood-color="#77dfed" flood-opacity=".3"/><feComposite in2="o" operator="in"/><feComposite in="SourceGraphic"/></filter><linearGradient id="p" x1="75.104" y1="22.808" x2="108.015" y2="22.808" gradientUnits="userSpaceOnUse"><stop offset="0" stop-color="#51dcfa"/><stop offset=".122" stop-color="#48d7f9"/><stop offset=".319" stop-color="#30cbf7"/><stop offset=".567" stop-color="#09b8f4"/><stop offset=".579" stop-color="#07b7f4"/><stop offset=".702" stop-color="#2bc9f7"/><stop offset=".818" stop-color="#46d6f9"/><stop offset=".921" stop-color="#56defa"/><stop offset="1" stop-color="#5ce1fb"/></linearGradient></defs><g filter="url(#d)"><path d="M91.034,20.313C44.363,20.313,6.526,58.136,6.526,104.808s37.837,84.494,84.508,84.494,84.494-37.823,84.494-84.494S137.705,20.313,91.034,20.313ZM91.034,182.44c-42.879,0-77.633-34.753-77.633-77.633S48.155,27.175,91.034,27.175s77.632,34.753,77.632,77.633-34.767,77.633-77.632,77.633Z" fill="url(#f)"/></g><path d="M168.666,104.808c0,42.879-34.767,77.633-77.632,77.633S13.401,147.687,13.401,104.808,48.155,27.175,91.034,27.175s77.632,34.753,77.632,77.633Z" fill="#2d2a4f"/><polygon points="48.897 69.922 44.248 85.787 73.649 85.787 57.906 138.724 78.51 129.387 91.326 85.827 127.589 85.787 135.287 69.922 48.897 69.922" fill="url(#g)"/><polygon points="96.654 91.961 81.771 143.74 94.046 159.617 109.347 106.457 131.698 106.468 137.949 91.961 96.654 91.961" fill="url(#h)"/><g filter="url(#i)"><rect x="145.469" y="34.92" width="19.998" height="6.793" rx="1.389" ry="1.389" transform="translate(72.63 -98.71) rotate(45)" fill="url(#k)"/></g><g filter="url(#l)"><rect x="85.94" y="12.716" width="11.382" height="6.328" rx="1.389" ry="1.389" fill="#03d7fb"/></g><g filter="url(#n)"><path d="M80.776,14.839h-5.53c-.465,0-.912-.185-1.241-.514l-1.094-1.094c-.329-.329-.514-.776-.514-1.241v-2.707c0-.469.188-.919.522-1.249l2.129-2.104c.328-.324.772-.506,1.233-.506h30.811c.468,0,.917.187,1.246.519l2.056,2.073c.326.329.509.773.509,1.236v2.776c0,.443-.167.869-.468,1.193l-.979,1.056c-.332.358-.798.562-1.287.562h-6.612c-.549,0-.995-.445-.995-.995v-4.111c0-.653-.53-1.183-1.183-1.183h-16.429c-.652,0-1.181.529-1.181,1.181v4.114c0,.549-.445.995-.995.995Z" fill="url(#p)"/></g></svg>